<svg xmlns="http://www.w3.org/2000/svg" version="1.1" xmlns:xlink="http://www.w3.org/1999/xlink" xmlns:svgjs="http://svgjs.dev/svgjs" viewBox="0 0 2400 800" opacity="1"><defs><linearGradient x1="50%" y1="0%" x2="50%" y2="100%" id="sssurf-grad"><stop stop-color="hsl(162, 100%, 58%)" stop-opacity="1" offset="0%"></stop><stop stop-color="hsl(270, 73%, 53%)" stop-opacity="1" offset="100%"></stop></linearGradient></defs><g fill="url(#sssurf-grad)" transform="matrix(1,0,0,1,0,-94.33566284179688)"><path d="M 0 314.348868399183 Q 360 471.75577446106945 480 334.3851938458791 Q 840 608.573499657205 960 336.4876839440272 Q 1320 602.2059912005961 1440 329.2016808124493 Q 1800 490.49164985611355 1920 313.3884174753885 Q 2280 472.6631128544918 2400 344.5459671462197 L 2400 800 L 0 800 L 0 308.6712900445434 Z" transform="matrix(1,0,0,1,0,35)" opacity="0.05"></path><path d="M 0 314.348868399183 Q 360 471.75577446106945 480 334.3851938458791 Q 840 608.573499657205 960 336.4876839440272 Q 1320 602.2059912005961 1440 329.2016808124493 Q 1800 490.49164985611355 1920 313.3884174753885 Q 2280 472.6631128544918 2400 344.5459671462197 L 2400 800 L 0 800 L 0 308.6712900445434 Z" transform="matrix(1,0,0,1,0,70)" opacity="0.21"></path><path d="M 0 314.348868399183 Q 360 471.75577446106945 480 334.3851938458791 Q 840 608.573499657205 960 336.4876839440272 Q 1320 602.2059912005961 1440 329.2016808124493 Q 1800 490.49164985611355 1920 313.3884174753885 Q 2280 472.6631128544918 2400 344.5459671462197 L 2400 800 L 0 800 L 0 308.6712900445434 Z" transform="matrix(1,0,0,1,0,105)" opacity="0.37"></path><path d="M 0 314.348868399183 Q 360 471.75577446106945 480 334.3851938458791 Q 840 608.573499657205 960 336.4876839440272 Q 1320 602.2059912005961 1440 329.2016808124493 Q 1800 490.49164985611355 1920 313.3884174753885 Q 2280 472.6631128544918 2400 344.5459671462197 L 2400 800 L 0 800 L 0 308.6712900445434 Z" transform="matrix(1,0,0,1,0,140)" opacity="0.53"></path><path d="M 0 314.348868399183 Q 360 471.75577446106945 480 334.3851938458791 Q 840 608.573499657205 960 336.4876839440272 Q 1320 602.2059912005961 1440 329.2016808124493 Q 1800 490.49164985611355 1920 313.3884174753885 Q 2280 472.6631128544918 2400 344.5459671462197 L 2400 800 L 0 800 L 0 308.6712900445434 Z" transform="matrix(1,0,0,1,0,175)" opacity="0.68"></path><path d="M 0 314.348868399183 Q 360 471.75577446106945 480 334.3851938458791 Q 840 608.573499657205 960 336.4876839440272 Q 1320 602.2059912005961 1440 329.2016808124493 Q 1800 490.49164985611355 1920 313.3884174753885 Q 2280 472.6631128544918 2400 344.5459671462197 L 2400 800 L 0 800 L 0 308.6712900445434 Z" transform="matrix(1,0,0,1,0,210)" opacity="0.84"></path><path d="M 0 314.348868399183 Q 360 471.75577446106945 480 334.3851938458791 Q 840 608.573499657205 960 336.4876839440272 Q 1320 602.2059912005961 1440 329.2016808124493 Q 1800 490.49164985611355 1920 313.3884174753885 Q 2280 472.6631128544918 2400 344.5459671462197 L 2400 800 L 0 800 L 0 308.6712900445434 Z" transform="matrix(1,0,0,1,0,245)" opacity="1"></path></g></svg>